<svg width="100" height="41" viewBox="0 0 100 41" fill="none" xmlns="http://www.w3.org/2000/svg">
<path d="M99.0437 20.3728C87.6761 42.283 10.2464 49.4882 1.06321 25.9921C-12.7078 -9.24257 112.081 -4.75653 99.0437 20.3728Z" fill="#66CCFF"/>
<path d="M28.2356 23.7428C28.5975 23.7428 28.8642 23.8857 29.0356 24.1714C29.2261 24.4381 29.3213 24.7333 29.3213 25.0571C29.3213 25.4571 29.2546 25.7428 29.1213 25.9143C29.007 26.0666 28.7785 26.2285 28.4356 26.4C27.6356 26.7809 26.6451 27.0857 25.4642 27.3143C24.2832 27.5428 23.0165 27.6571 21.6642 27.6571C19.9689 27.6571 18.7213 27.3714 17.9213 26.8C17.1404 26.2285 16.6546 25.5428 16.4642 24.7428C16.2927 23.9238 16.207 22.8571 16.207 21.5428C16.207 20.1333 16.2642 18.7523 16.3785 17.4C16.4927 16.0285 16.6927 14.2857 16.9785 12.1714C17.1118 11.2571 17.4737 10.6 18.0642 10.2C18.6546 9.78092 19.3023 9.5714 20.007 9.5714C20.5975 9.5714 21.5594 9.55235 22.8927 9.51425L25.3785 9.48568C26.407 9.48568 27.1499 9.51425 27.607 9.5714C28.1785 9.68568 28.5975 9.81902 28.8642 9.9714C29.1499 10.1047 29.2927 10.3428 29.2927 10.6857C29.2927 11.0666 29.1594 11.4381 28.8927 11.8C28.6451 12.1619 28.2642 12.3428 27.7499 12.3428C27.1594 12.3428 26.3118 12.3047 25.207 12.2285C24.1023 12.1523 23.2737 12.1143 22.7213 12.1143C22.2451 12.1143 21.7785 12.1428 21.3213 12.2C20.788 12.2381 20.407 12.3047 20.1785 12.4C19.9499 12.4952 19.8165 12.6571 19.7785 12.8857C19.5118 14.8476 19.3785 16.2952 19.3785 17.2285C19.8165 17.2857 20.2451 17.3143 20.6642 17.3143C21.1975 17.3143 21.7689 17.2857 22.3785 17.2285C22.988 17.1714 23.3785 17.1333 23.5499 17.1143C24.5594 17.019 25.4261 16.9714 26.1499 16.9714C26.5689 16.9714 26.8832 17.0476 27.0927 17.2C27.3213 17.3523 27.4356 17.5619 27.4356 17.8285C27.4356 18.2476 27.3213 18.5714 27.0927 18.8C26.8832 19.0285 26.5023 19.2 25.9499 19.3143C25.2832 19.4476 24.4546 19.5523 23.4642 19.6285C22.4927 19.7047 21.5404 19.7428 20.607 19.7428C20.2832 19.7428 19.8356 19.7238 19.2642 19.6857C19.207 20.8476 19.1785 21.9238 19.1785 22.9143C19.1785 24.2666 20.0737 24.9428 21.8642 24.9428C22.8165 24.9428 23.607 24.8762 24.2356 24.7428C24.8642 24.6095 25.588 24.419 26.407 24.1714C27.1689 23.8857 27.7785 23.7428 28.2356 23.7428ZM44.632 25.4285C44.7273 25.4666 44.8796 25.5143 45.0892 25.5714C45.2987 25.6285 45.4511 25.6857 45.5463 25.7428C45.6415 25.8 45.6892 25.8857 45.6892 26C45.7082 26.4571 45.5368 26.8381 45.1749 27.1428C44.832 27.4285 44.4225 27.5714 43.9463 27.5714C43.2035 27.5714 42.6225 27.3714 42.2035 26.9714C41.7844 26.5714 41.4796 25.9619 41.2892 25.1428C41.213 24.819 41.1749 24.3714 41.1749 23.8C41.1749 23.4762 41.1939 22.9523 41.232 22.2285C41.2701 21.4666 41.2892 20.8571 41.2892 20.4C41.2892 19.7333 41.0987 19.1523 40.7177 18.6571C40.3558 18.1428 39.8415 17.8857 39.1749 17.8857C38.7749 17.8857 38.3558 18.0095 37.9177 18.2571C37.4796 18.4857 37.1749 18.7714 37.0035 19.1143C36.7177 19.6666 36.5177 20.2666 36.4035 20.9143C36.1939 22.0571 36.0892 23.2476 36.0892 24.4857C36.0892 25.0762 36.0987 25.5333 36.1177 25.8571C36.1177 25.9333 36.1177 26.0857 36.1177 26.3143C36.1368 26.5238 36.1177 26.7238 36.0606 26.9143C36.0225 27.0857 35.9463 27.2476 35.832 27.4C35.7368 27.4952 35.5844 27.5714 35.3749 27.6285C35.1844 27.7047 35.0035 27.7428 34.832 27.7428C34.5654 27.7428 34.232 27.6285 33.832 27.4C33.432 27.1714 33.2035 26.9143 33.1463 26.6285L33.1177 26.1428C33.1177 25.9714 33.1368 25.7714 33.1749 25.5428C33.4035 24.2095 33.5177 23.0476 33.5177 22.0571C33.5177 21.619 33.5082 21.2762 33.4892 21.0285L33.4606 19.6857C33.4606 19.2285 33.3463 18.7904 33.1177 18.3714C32.8892 17.9333 32.6225 17.7143 32.3177 17.7143C32.2225 17.7143 32.0892 17.7523 31.9177 17.8285C31.7463 17.8857 31.6035 17.9143 31.4892 17.9143C31.2987 17.9143 31.0892 17.819 30.8606 17.6285C30.6511 17.4381 30.5463 17.2381 30.5463 17.0285C30.5463 16.6285 30.6796 16.3047 30.9463 16.0571C31.232 15.8285 31.5082 15.6476 31.7749 15.5143C32.0606 15.3809 32.3844 15.3143 32.7463 15.3143C33.0511 15.3143 33.2987 15.3428 33.4892 15.4C33.6796 15.4571 33.9368 15.5809 34.2606 15.7714C34.432 15.8666 34.632 16.0762 34.8606 16.4C35.0892 16.7238 35.2796 17.1809 35.432 17.7714C35.9273 16.8571 36.5368 16.219 37.2606 15.8571C38.0035 15.4762 38.9463 15.2857 40.0892 15.2857C40.5273 15.2857 40.9939 15.4285 41.4892 15.7143C42.0035 16 42.4415 16.3333 42.8035 16.7143C43.1463 17.1333 43.432 17.6571 43.6606 18.2857C43.8892 18.8952 44.0035 19.4476 44.0035 19.9428C44.0035 20.2285 43.9844 20.6952 43.9463 21.3428C43.8892 21.8571 43.8606 22.4 43.8606 22.9714C43.8606 24.3047 44.1177 25.1238 44.632 25.4285ZM58.73 20.4571C58.73 21.3333 58.511 22.0762 58.0729 22.6857C57.6348 23.2762 57.0538 23.8 56.33 24.2571C55.3395 24.7904 54.1872 25.0666 52.8729 25.0857C52.7967 25.3143 52.7586 25.5523 52.7586 25.8C52.7586 26.0285 52.8824 26.2 53.13 26.3143C53.3967 26.4095 53.8633 26.4857 54.53 26.5428C55.0824 26.5809 55.7014 26.7047 56.3872 26.9143C57.0919 27.1047 57.6443 27.3238 58.0443 27.5714C58.5395 27.9333 58.8824 28.3238 59.0729 28.7428C59.2824 29.1619 59.3872 29.6857 59.3872 30.3143C59.3872 31.1333 59.0062 31.819 58.2443 32.3714C57.5014 32.9428 56.6253 33.3619 55.6157 33.6285C54.6062 33.8952 53.7205 34.0285 52.9586 34.0285C52.0443 34.0285 51.2633 33.9143 50.6157 33.6857C49.9872 33.4762 49.3872 33.1809 48.8157 32.8C48.4157 32.5143 48.1014 32.1523 47.8729 31.7143C47.6443 31.2762 47.53 30.819 47.53 30.3428C47.53 29.8666 47.6824 29.4095 47.9872 28.9714C48.311 28.5333 48.7014 28.1523 49.1586 27.8285C49.6157 27.5238 50.0443 27.3143 50.4443 27.2C50.2919 27.0095 50.1776 26.8476 50.1014 26.7143C50.0443 26.5619 50.0157 26.3904 50.0157 26.2C50.0157 25.5523 50.1776 25.0095 50.5014 24.5714C49.5872 24.2666 48.8633 23.7238 48.33 22.9428C47.8157 22.1619 47.5586 21.2476 47.5586 20.2C47.5586 19.5143 47.7205 18.8952 48.0443 18.3428C48.3681 17.7714 48.8157 17.2285 49.3872 16.7143C50.3586 15.8381 51.7014 15.4 53.4157 15.4C53.6443 15.4 53.9586 15.4381 54.3586 15.5143C54.7586 15.5904 55.1491 15.6952 55.53 15.8285C56.1395 15.5619 56.8538 15.2857 57.6729 15C58.4919 14.7143 59.0443 14.5714 59.33 14.5714C59.7681 14.5714 60.0919 14.6476 60.3014 14.8C60.53 14.9333 60.6443 15.2381 60.6443 15.7143C60.6443 16.1523 60.3872 16.4666 59.8729 16.6571C59.3776 16.8476 58.6253 17.0285 57.6157 17.2C58.3586 18.0952 58.73 19.1809 58.73 20.4571ZM52.7872 22.7428C53.8919 22.7428 54.6919 22.5143 55.1872 22.0571C55.7014 21.6 55.9586 20.9143 55.9586 20C55.9586 18.4952 55.0729 17.7428 53.3014 17.7428C52.6157 17.7428 52.0729 17.819 51.6729 17.9714C51.2919 18.1238 50.9776 18.3809 50.73 18.7428C50.3872 19.2 50.2157 19.819 50.2157 20.6C50.2157 21.2095 50.4633 21.7238 50.9586 22.1428C51.4729 22.5428 52.0824 22.7428 52.7872 22.7428ZM50.2157 30.5428C50.2157 30.8666 50.511 31.1428 51.1014 31.3714C51.711 31.619 52.3586 31.7428 53.0443 31.7428C53.8062 31.7428 54.5872 31.6 55.3872 31.3143C56.2062 31.0476 56.6157 30.6857 56.6157 30.2285C56.6157 29.5619 56.0253 29.1333 54.8443 28.9428C54.4253 28.8666 53.8157 28.7238 53.0157 28.5143C52.9205 28.4952 52.8062 28.4666 52.6729 28.4285C52.5586 28.3904 52.4348 28.3523 52.3014 28.3143C51.8824 28.4666 51.4253 28.7809 50.93 29.2571C50.4538 29.7523 50.2157 30.1809 50.2157 30.5428ZM65.4675 23.2C65.4675 23.9238 65.5723 24.4857 65.7818 24.8857C66.0104 25.2666 66.2961 25.4571 66.6389 25.4571C66.8294 25.4571 67.0104 25.4476 67.1818 25.4285C67.3532 25.3904 67.5247 25.3714 67.6961 25.3714C67.8866 25.3714 68.0485 25.4666 68.1818 25.6571C68.3342 25.8476 68.4104 26.0571 68.4104 26.2857C68.4104 26.7428 68.1913 27.1047 67.7532 27.3714C67.3342 27.619 66.7628 27.7428 66.0389 27.7428C65.5247 27.7428 65.0008 27.5904 64.4675 27.2857C63.9532 26.9619 63.5247 26.4666 63.1818 25.8C62.8389 25.1143 62.6675 24.2666 62.6675 23.2571C62.6675 21.0857 62.7056 19.2476 62.7818 17.7428C62.877 15.9523 62.9247 13.6952 62.9247 10.9714C62.9247 10.1143 62.9723 9.51425 63.0675 9.1714C63.1818 8.90473 63.3628 8.70473 63.6104 8.5714C63.877 8.41902 64.1532 8.34283 64.4389 8.34283C64.7247 8.34283 64.9723 8.39044 65.1818 8.48568C65.4104 8.58092 65.5628 8.7333 65.6389 8.94282C65.7151 9.1714 65.7628 9.39997 65.7818 9.62854C65.8199 9.83806 65.8389 10.1428 65.8389 10.5428C65.8389 11.3238 65.8104 12.0762 65.7532 12.8C65.7151 13.6762 65.6961 14.3143 65.6961 14.7143C65.5437 18.0666 65.4675 20.8952 65.4675 23.2ZM70.1305 21.5714C70.1305 20.8476 70.2638 20.1238 70.5305 19.4C70.7971 18.6571 71.1495 17.9809 71.5876 17.3714C72.0257 16.7619 72.7209 16.2666 73.6733 15.8857C74.6257 15.4857 75.4733 15.2857 76.2162 15.2857C76.9781 15.2857 77.7495 15.3904 78.5305 15.6C79.3305 15.8095 79.8828 16.1333 80.1876 16.5714C80.8924 17.5619 81.2447 18.5333 81.2447 19.4857C81.2447 20 81.1305 20.4381 80.9019 20.8C80.6924 21.1619 80.3876 21.5523 79.9876 21.9714C79.6638 22.3143 79.1495 22.5428 78.4447 22.6571C77.759 22.7714 77.0733 22.8285 76.3876 22.8285C75.9495 22.8285 75.4162 22.7904 74.7876 22.7143C74.159 22.619 73.5495 22.5047 72.959 22.3714C72.9971 22.7523 73.0924 23.1238 73.2447 23.4857C73.3971 23.8476 73.5781 24.1238 73.7876 24.3143C74.1686 24.6762 74.559 24.9047 74.959 25C75.3781 25.0952 75.9114 25.1428 76.559 25.1428C77.2447 25.1428 77.8828 25.0285 78.4733 24.8C78.9495 24.6285 79.34 24.5428 79.6447 24.5428C80.0067 24.5428 80.2828 24.6571 80.4733 24.8857C80.6638 25.0952 80.759 25.3714 80.759 25.7143C80.759 26.1904 80.4828 26.5809 79.9305 26.8857C79.3781 27.1904 78.74 27.419 78.0162 27.5714C77.3114 27.7047 76.74 27.7714 76.3019 27.7714C75.4067 27.7714 74.54 27.6095 73.7019 27.2857C72.8638 26.9619 72.1686 26.5047 71.6162 25.9143C71.159 25.3809 70.7971 24.7428 70.5305 24C70.2638 23.2381 70.1305 22.4285 70.1305 21.5714ZM76.359 17.7143C75.94 17.7143 75.5209 17.8 75.1019 17.9714C74.6828 18.1238 74.34 18.3428 74.0733 18.6285C73.7305 18.9904 73.4924 19.2857 73.359 19.5143C73.2447 19.7238 73.1686 20.019 73.1305 20.4C73.6067 20.5523 74.5971 20.6285 76.1019 20.6285C76.9209 20.6285 77.5495 20.5047 77.9876 20.2571C78.4447 20.0095 78.6733 19.6857 78.6733 19.2857C78.6733 18.8857 78.4257 18.5238 77.9305 18.2C77.4352 17.8762 76.9114 17.7143 76.359 17.7143Z" fill="black"/>
</svg>
