<svg width="68" height="24" viewBox="0 0 68 24" fill="none" xmlns="http://www.w3.org/2000/svg">
<path fill-rule="evenodd" clip-rule="evenodd" d="M13.0813 10.9654V19.4939C13.0813 19.5432 13.0733 19.6497 12.9963 19.6922C11.7587 20.5639 10.1202 21 8.08063 21C4.38527 21 0 19.8623 0 12.2251C0 4.58804 3.83026 3 7.56442 3C10.8058 3 12.0889 3.71763 12.299 3.86794C12.376 3.92338 12.3988 4.00469 12.3988 4.07183L11.7748 6.71384C11.7748 6.85798 11.6244 7.01999 11.4618 6.97071C11.4094 6.95451 11.354 6.93656 11.2948 6.91736L11.2948 6.91735C10.7682 6.74667 9.93898 6.47791 8.24079 6.47791C6.05831 6.47791 3.73416 7.12409 3.73416 12.0336C3.73416 16.9424 5.96653 17.5264 7.56442 17.5264C8.46747 17.5264 9.08224 17.471 9.40871 17.3595V13.9616H7.22686C7.08272 13.9616 6.96567 13.844 6.96567 13.6998V10.9654C6.96567 10.8213 7.08272 10.7036 7.22686 10.7036H12.8201C12.9642 10.7036 13.0813 10.8207 13.0813 10.9654ZM41.6456 20.3939C41.6456 20.5393 41.5298 20.6575 41.3857 20.6575H38.2287C38.0845 20.6575 37.9681 20.5393 37.9681 20.3939L37.9681 20.3846C37.9683 20.2206 37.9714 17.8742 37.9767 13.345H33.0679V20.3939C33.0679 20.5393 32.9521 20.6575 32.8079 20.6575H29.6589C29.5154 20.6575 29.399 20.5393 29.399 20.3939V3.91415C29.399 3.76878 29.516 3.65112 29.6589 3.65112H32.8079C32.9521 3.65112 33.0679 3.76878 33.0679 3.91415V10.0002H37.9767C37.9761 5.94324 37.9761 3.91415 37.9761 3.91415C37.9761 3.76878 38.0932 3.65112 38.2367 3.65112H41.3863C41.5304 3.65112 41.6456 3.76878 41.6456 3.91415V20.3939ZM14.702 6.07627C14.702 7.20908 15.6118 8.12815 16.7323 8.12815C17.854 8.12815 18.7632 7.20908 18.7632 6.07627C18.7632 4.94222 17.854 4.02562 16.7323 4.02562C15.6118 4.02562 14.702 4.94222 14.702 6.07627ZM18.5384 20.2343C18.5384 20.5022 18.4626 20.655 18.1522 20.655H15.3235C15.0654 20.655 14.8658 20.5595 14.8658 20.2392V9.34041C14.8658 9.19627 14.9946 9.0472 15.1387 9.0472H18.2784C18.4226 9.0472 18.539 9.16547 18.539 9.30961V16.9165V20.2337L18.5384 20.2343ZM53.8768 20.3988L53.8756 9.33613V9.33551C53.8756 9.19014 53.7592 9.07187 53.615 9.07187H50.4895C50.3459 9.07187 50.2295 9.19014 50.2295 9.33551V17.4161C49.7004 17.8036 49.0603 17.997 48.3088 17.997C47.1822 17.997 46.8828 17.4857 46.8828 16.3825V9.33551C46.8828 9.19014 46.7664 9.07187 46.6229 9.07187H43.4511C43.3076 9.07187 43.1905 9.19014 43.1905 9.33551V16.916C43.1905 20.193 45.017 20.9951 47.5296 20.9951C48.9039 20.9951 50.1451 20.6156 51.2533 19.8561C51.3063 20.2565 51.3445 20.4801 51.3685 20.5275C51.4042 20.599 51.4972 20.6704 51.5983 20.6704L53.6163 20.6618C53.7598 20.6618 53.8768 20.5435 53.8768 20.3988ZM66.5614 14.4458C66.5614 19.5253 64.9155 20.9815 62.0455 20.9815C60.4156 20.9815 59.1701 20.5737 58.3095 19.7576C58.2572 20.2054 58.2128 20.4586 58.1765 20.5177C58.121 20.607 58.0465 20.6575 57.9479 20.6575H55.7568C55.6127 20.6575 55.4963 20.5393 55.4963 20.3939V3.91415C55.4963 3.76878 55.6127 3.65112 55.7568 3.65112H58.915C59.0586 3.65112 59.175 3.76878 59.175 3.91415V9.49445C59.9801 8.96655 60.9737 8.70229 62.157 8.70229C63.9336 8.70229 66.562 9.36633 66.562 14.4458H66.5614ZM62.9295 14.6436C62.9295 11.9591 61.8453 11.619 60.7199 11.7194C60.1267 11.7724 59.5883 11.9473 59.1048 12.2436V17.4624C59.5951 17.7901 60.2012 17.965 60.9238 17.9872C62.4403 18.0328 62.9294 17.4741 62.9295 14.6436ZM27.8504 11.8475V9.30962C27.8504 9.16425 27.7339 9.04721 27.5898 9.04721H25.2275L25.2238 5.92596C25.2238 5.80769 25.1628 5.74855 25.026 5.74855H21.8068C21.6818 5.74855 21.6147 5.80399 21.6147 5.92411V9.14946C20.5391 9.40879 19.965 9.54924 19.8923 9.57019C19.7839 9.6016 19.7038 9.70201 19.7038 9.82151V11.8481C19.7038 11.9935 19.8203 12.1112 19.9644 12.1112H21.6153V16.9868C21.6153 20.6082 24.155 20.9636 25.8693 20.9636C26.6529 20.9636 27.5898 20.7123 27.7444 20.655C27.8381 20.6205 27.8923 20.5238 27.8923 20.4185L27.8947 18.1892C27.8947 18.0438 27.7721 17.9262 27.6335 17.9262C27.5809 17.9262 27.4972 17.9343 27.3936 17.9444C27.2256 17.9608 27.0054 17.9822 26.781 17.9822C25.6205 17.9822 25.2275 17.4426 25.2275 16.7441V12.1106H27.5898C27.7339 12.1106 27.8504 11.9935 27.8504 11.8475Z" fill="#E6E6E6"/>
</svg>
