<svg width="374" height="538" viewBox="0 0 374 538" fill="none" xmlns="http://www.w3.org/2000/svg">
<path d="M117.703 193.8C117.744 195.572 118.476 197.257 119.744 198.496C121.011 199.734 122.712 200.428 124.484 200.427H124.63L131.062 200.291V201.57C131.193 207.858 133.586 213.887 137.802 218.553C142.017 223.219 147.773 226.208 154.013 226.972L162.124 242.512L179.52 233.422L173.48 221.853C176.777 219.363 179.435 216.124 181.236 212.405C183.038 208.685 183.93 204.591 183.839 200.458L183.521 185.383C183.372 178.453 180.477 171.866 175.473 167.071C170.47 162.276 163.767 159.665 156.84 159.814H156.318C149.392 159.964 142.808 162.86 138.015 167.866C133.222 172.871 130.612 179.575 130.759 186.505V186.766L124.333 186.901C122.541 186.941 120.837 187.689 119.595 188.982C118.352 190.275 117.672 192.007 117.703 193.8Z" fill="#FFBB55"/>
<path d="M244.248 355.884L236.815 382.058L241.979 383.133L249.579 363.127L247.325 386.901L254.967 387.193L256.599 363.622L258.895 387.626L265.712 388.508L263.229 361.801L271.137 381.912L276.76 376.991L265.42 346.287H265.389L266.025 337.536L268.299 306.608L249.709 305.267L246.652 346.851L235.771 356.406L239.944 360.058C239.944 360.058 242.031 357.971 244.248 355.884Z" fill="#FFBB55"/>
<path d="M235.703 356.285L240.054 359.949L244.075 355.477L237.727 382.032L242.025 382.137L249.579 363.335L247.899 387.036L254.936 387.266L256.537 363.377L259.823 387.543L265.065 387.136L263.151 361.895L271.779 380.795L276.703 377.038L264.539 346.611L265.373 338.403L247.158 338.209L247.461 344.821L235.703 356.285Z" stroke="#221E1D" stroke-width="2" stroke-linecap="round" stroke-linejoin="round"/>
<path d="M246.548 274.041L242.964 338.142L273.067 339.812L276.765 273.597C276.825 272.541 276.825 271.481 276.765 270.425L276.828 268.859C277.349 255.725 269.358 246.118 254.56 242.382L184.934 227.249L182.639 271.536L246.548 274.041Z" fill="#66CCFF"/>
<path d="M245.781 336.258L247.925 270.649L197.485 267.132" stroke="#221E1D" stroke-width="2" stroke-miterlimit="10" stroke-linecap="round"/>
<path d="M268.993 339.144L274.246 264.236C274.246 264.236 273.443 246.202 254.497 242.236C235.552 238.27 190.5 229.832 190.5 229.832" stroke="#221E1D" stroke-width="2" stroke-miterlimit="10" stroke-linecap="round"/>
<path d="M179.509 435.941L147.484 486.25C143.202 492.977 141.766 501.129 143.493 508.914C145.22 516.699 149.967 523.479 156.691 527.763L204.883 452.057L179.531 435.906L179.509 435.941Z" fill="#221E1D"/>
<path d="M69.7678 418.558C59.6836 412.134 56.7147 398.748 63.1366 388.66C69.5585 378.571 82.9393 375.601 93.0235 382.026L178.819 436.684C188.903 443.108 191.872 456.494 185.45 466.583C179.028 476.671 165.648 479.641 155.563 473.216L69.7678 418.558Z" fill="#FFBB55" stroke="#221E1D" stroke-width="2" stroke-miterlimit="10"/>
<path d="M91.8153 286.194L109.936 290.577L119.044 252.917L132.011 242.643L128.897 237.503L123.347 242.016L135.198 216.896L130.279 214.996L119.518 233.495L125.616 210.41L118.115 208.896L112.659 231.883L114.313 207.816L107.735 205.833L105.821 232.587L101.304 211.438L94.9554 215.372L101.137 247.516L101.163 247.527L99.1023 256.054L91.8153 286.194Z" fill="#FFBB55"/>
<path d="M101.715 342.88L102.154 343.162C113.222 350.243 126.503 346.694 138.912 333.127L195.179 268.087L158.191 243.639L122.152 300.049L128.052 259.988L92.3263 254.707L83.9805 311.586C83.0243 318.034 84.2505 324.616 87.4641 330.287C90.6776 335.957 95.694 340.39 101.715 342.88Z" fill="#66CCFF"/>
<path d="M132.543 241.573L128.845 237.242L124.15 241.004L134.744 215.837L130.519 215.033L120.003 232.352L125.527 209.241L118.621 207.863L113.144 231.173L113.843 206.793L108.611 206.339L106.374 231.554L100.949 211.5L95.4822 214.402L102.514 246.405L100.349 254.368L118.293 257.535L119.07 250.96L132.543 241.573Z" stroke="#221E1D" stroke-width="2" stroke-linecap="round" stroke-linejoin="round"/>
<path d="M102.978 501.149H43.3308C35.3595 501.149 27.7147 504.317 22.0782 509.955C16.4417 515.594 13.2751 523.242 13.2751 531.216H102.993V501.149H102.978Z" fill="#221E1D"/>
<path d="M58.6872 399.221V500.977C58.6872 506.72 60.9679 512.228 65.0275 516.289C69.0871 520.351 74.5932 522.632 80.3344 522.632C86.0755 522.632 91.5815 520.351 95.6412 516.289C99.7008 512.228 101.981 506.72 101.981 500.977V418.262H218.558C223.884 418.262 228.992 416.146 232.758 412.378C236.524 408.61 238.64 403.5 238.64 398.172C238.64 392.844 236.524 387.734 232.758 383.966C228.992 380.199 223.884 378.082 218.558 378.082C218.558 378.082 81.9566 377.56 80.3291 377.56C74.5888 377.563 69.0844 379.845 65.0254 383.906C60.9663 387.967 58.6848 393.473 58.682 399.216L58.6872 399.221Z" fill="#FFBB55" stroke="#221E1D" stroke-width="2" stroke-miterlimit="10"/>
<path d="M46.9456 485.844C46.9456 485.844 106.41 494.715 107.975 494.715C109.018 494.715 108.903 459.001 108.721 433.108L219.246 421.837C228.975 421.434 238.176 417.302 244.942 410.298C251.708 403.294 255.522 393.954 255.593 384.213V344.404L155.442 367.364L55.2915 373.626L55.7662 374.221L46.9456 485.844Z" fill="#FCDBAA"/>
<path d="M181.007 431.047L143.45 477.489L100.156 447.223L102.242 415.914L159.099 411.74L181.007 431.047Z" fill="#FCDBAA"/>
<path d="M149.306 175.491L149.312 175.491C154.263 175.386 158.361 179.316 158.465 184.269L158.525 187.076C158.629 192.029 154.7 196.129 149.749 196.234L149.744 196.234C144.793 196.338 140.695 192.408 140.59 187.455L140.531 184.648C140.426 179.695 144.355 175.595 149.306 175.491Z" fill="#F8FAFC"/>
<path d="M140.43 182.835C140.37 179.843 141.989 177.385 144.046 177.344C146.103 177.303 147.818 179.694 147.878 182.686C147.938 185.677 146.319 188.136 144.262 188.177C142.205 188.218 140.489 185.826 140.43 182.835Z" fill="#221E1D"/>
<path d="M165.942 156.349L165.994 156.375C165.994 156.375 165.994 156.328 165.994 156.307L165.942 156.349Z" fill="#221E1D"/>
<path d="M165.942 156.349L165.994 156.375C165.994 156.375 165.994 156.328 165.994 156.307L165.942 156.349Z" fill="#221E1D"/>
<path d="M179.436 186.635C179.462 186.686 179.483 186.738 179.499 186.792C179.687 186.698 179.875 186.614 180.068 186.536C179.838 186.578 179.624 186.609 179.436 186.635Z" fill="#221E1D"/>
<path d="M165.942 156.349L165.994 156.375C165.994 156.375 165.994 156.328 165.994 156.307L165.942 156.349Z" fill="#221E1D"/>
<path d="M136.361 147.676C136.817 147.664 137.274 147.682 137.728 147.728C137.76 146.137 138.382 144.614 139.472 143.455C140.562 142.295 142.043 141.582 143.629 141.452C145.214 141.322 146.792 141.785 148.056 142.752C149.32 143.718 150.18 145.12 150.471 146.685C152.007 145.944 153.696 145.578 155.4 145.615C157.104 145.652 158.775 146.092 160.277 146.898C161.352 145.517 162.829 144.503 164.504 143.997C166.179 143.49 167.97 143.516 169.63 144.071C171.289 144.626 172.736 145.682 173.77 147.094C174.805 148.506 175.376 150.205 175.404 151.955C175.404 152.085 175.404 152.216 175.404 152.346C175.853 152.299 176.312 152.273 176.771 152.263C179.541 152.207 182.284 152.818 184.768 154.046C187.253 155.273 189.406 157.08 191.045 159.314C192.685 161.549 193.763 164.145 194.19 166.884C194.616 169.622 194.377 172.424 193.494 175.051C194.801 176.101 195.88 177.406 196.665 178.888C197.45 180.37 197.924 181.996 198.058 183.667C198.192 185.339 197.984 187.02 197.446 188.608C196.908 190.196 196.051 191.657 194.929 192.902C195.564 194.537 195.812 196.296 195.651 198.043C195.49 199.789 194.926 201.474 194.003 202.965C193.079 204.455 191.822 205.711 190.331 206.632C188.839 207.553 187.154 208.115 185.408 208.273C183.662 208.431 181.903 208.18 180.271 207.542C178.638 206.903 177.177 205.893 176.001 204.592C174.825 203.291 173.968 201.735 173.497 200.046C173.026 198.357 172.954 196.581 173.287 194.859C172.191 194.75 171.148 194.34 170.27 193.675C169.393 193.01 168.716 192.116 168.313 191.091C167.911 190.066 167.799 188.95 167.99 187.866C168.181 186.781 168.667 185.77 169.395 184.945C167.016 183.757 164.943 182.037 163.337 179.917C161.732 177.798 160.636 175.336 160.137 172.724C158.778 172.47 157.498 171.9 156.401 171.059C155.304 170.219 154.419 169.132 153.82 167.886C153.391 168.901 152.708 169.788 151.838 170.463C150.968 171.138 149.94 171.578 148.851 171.741C147.762 171.905 146.65 171.786 145.62 171.396C144.59 171.006 143.678 170.358 142.97 169.514C141.428 170.499 139.679 171.112 137.86 171.307C136.042 171.502 134.202 171.273 132.487 170.638C130.771 170.003 129.226 168.979 127.972 167.647C126.719 166.314 125.79 164.709 125.26 162.958C124.73 161.207 124.613 159.356 124.917 157.552C125.222 155.747 125.94 154.038 127.015 152.558C128.091 151.077 129.494 149.866 131.115 149.019C132.737 148.172 134.532 147.713 136.361 147.676ZM179.478 186.813C179.666 186.719 179.854 186.635 180.047 186.557C179.838 186.599 179.624 186.63 179.416 186.656C179.441 186.706 179.462 186.759 179.478 186.813ZM165.994 156.396C165.994 156.396 165.994 156.349 165.994 156.328L165.947 156.37L165.994 156.396Z" fill="#221E1D"/>
<path d="M171.231 199.175C166.184 199.175 162.093 195.082 162.093 190.032C162.093 184.983 166.184 180.89 171.231 180.89C176.279 180.89 180.37 184.983 180.37 190.032C180.37 195.082 176.279 199.175 171.231 199.175Z" fill="#FFBB55"/>
<path d="M138.928 205.035C138.984 207.591 140.052 210.021 141.897 211.79C143.743 213.559 146.215 214.523 148.77 214.469C151.328 214.415 153.759 213.346 155.53 211.499C157.3 209.651 158.265 207.176 158.212 204.617" stroke="#221E1D" stroke-width="2" stroke-miterlimit="10" stroke-linecap="round"/>
<path d="M140.373 383.806L263.417 349.637L187.678 225.261L153.815 239.256L140.373 383.806Z" fill="#66CCFF"/>
<path d="M141.385 383.712L258.462 346.767L185.409 225.861L154.66 239.277L154.827 242.549" stroke="#221E1D" stroke-width="2" stroke-miterlimit="10" stroke-linecap="round"/>
<path d="M159.354 236.668L153.966 226.534C153.966 226.534 133.482 226.273 130.895 200.156H123.796C122.033 200.156 120.338 199.472 119.068 198.249C117.798 197.026 117.051 195.359 116.983 193.596V193.596C116.952 192.682 117.106 191.771 117.434 190.918C117.763 190.064 118.26 189.286 118.896 188.628C119.531 187.971 120.293 187.448 121.134 187.092C121.976 186.735 122.881 186.551 123.796 186.552H130.618C130.618 186.552 130.154 172.671 139.867 167.583" stroke="#221E1D" stroke-width="2" stroke-miterlimit="10" stroke-linecap="round"/>
<path d="M176.563 228.84L173.083 222.135C173.083 222.135 180.949 216.886 183.411 203.668" stroke="#221E1D" stroke-width="2" stroke-miterlimit="10" stroke-linecap="round"/>
<path d="M252.724 355.116L252.067 367.004C252.061 381.493 246.304 395.388 236.061 405.632C225.817 415.876 211.927 421.632 197.443 421.633H104.324C104.324 421.633 103.802 488.949 104.324 489.47C104.845 489.992 54.2483 479.034 54.2483 479.034" stroke="#221E1D" stroke-width="2" stroke-miterlimit="10" stroke-linecap="round"/>
<path d="M212.564 377.56C212.564 377.56 209.435 383.822 218.302 390.606" stroke="#221E1D" stroke-width="2" stroke-miterlimit="10" stroke-linecap="round"/>
<path d="M100.917 471.389L53.4711 463.666" stroke="#221E1D" stroke-width="2" stroke-miterlimit="10" stroke-linecap="round"/>
<path d="M107.198 423.48L157.273 453.746" stroke="#221E1D" stroke-width="2" stroke-miterlimit="10" stroke-linecap="round"/>
<path d="M179.004 431.767L143.711 477.228L132.152 469.156L144.754 449.05" stroke="#221E1D" stroke-width="2" stroke-miterlimit="10" stroke-linecap="round"/>
<path d="M184.392 272.674L143.184 322.247C137.848 328.67 129.752 334.186 122.048 337.176C108.335 342.494 88.3098 334.515 85.4096 319.09C84.2516 312.958 86.2234 306.931 87.1414 300.915C88.0595 294.898 88.3307 288.694 89.0453 282.614L92.3263 254.65L127.796 259.868L121.146 302.24L164.831 238.995" stroke="#221E1D" stroke-width="2" stroke-miterlimit="10" stroke-linecap="round"/>
<path d="M156.485 98.6247C156.478 106.307 159.16 113.75 164.067 119.66C168.973 125.57 175.793 129.574 183.344 130.978C184.19 134.027 185.702 136.851 187.771 139.245C189.841 141.639 192.415 143.544 195.309 144.823C198.202 146.102 201.344 146.723 204.506 146.64C207.669 146.558 210.774 145.775 213.597 144.347C220.982 155.157 232.339 162.607 245.192 165.074C258.046 167.54 271.353 164.822 282.211 157.512C284.975 161.964 289.091 165.412 293.957 167.353C298.823 169.294 304.182 169.624 309.249 168.296C314.316 166.968 318.825 164.052 322.115 159.974C325.404 155.896 327.302 150.871 327.529 145.636C334.728 143.946 341.29 140.224 346.434 134.911C351.579 129.599 355.091 122.92 356.551 115.669C358.012 108.418 357.36 100.9 354.673 94.0085C351.985 87.1174 347.377 81.1433 341.394 76.7968C343.348 69.862 343.112 62.4927 340.72 55.6968C338.327 48.901 333.894 43.0106 328.027 38.8314C322.16 34.6523 315.146 32.3885 307.944 32.3498C300.742 32.311 293.704 34.4992 287.792 38.615C284.259 29.915 278.058 22.5611 270.08 17.6124C262.102 12.6638 252.761 10.3757 243.4 11.0778C234.039 11.7799 225.143 15.4358 217.992 21.5192C210.841 27.6025 205.805 35.7993 203.608 44.9291C200.313 43.186 196.563 42.4938 192.863 42.9455C189.163 43.3971 185.69 44.9711 182.91 47.4558C180.131 49.9404 178.178 53.2168 177.314 56.8444C176.451 60.4721 176.718 64.2772 178.08 67.7484C171.753 70.0627 166.289 74.2651 162.426 79.7873C158.564 85.3095 156.49 91.885 156.485 98.6247Z" fill="#66CCFF"/>
<path d="M232.636 182.654C227.739 182.654 223.769 178.682 223.769 173.783C223.769 168.884 227.739 164.912 232.636 164.912C237.534 164.912 241.504 168.884 241.504 173.783C241.504 178.682 237.534 182.654 232.636 182.654Z" fill="#66CCFF"/>
<path d="M218.031 191.53C216.302 191.53 214.901 190.128 214.901 188.399C214.901 186.67 216.302 185.268 218.031 185.268C219.759 185.268 221.161 186.67 221.161 188.399C221.161 190.128 219.759 191.53 218.031 191.53Z" fill="#66CCFF"/>
<path d="M204.991 197.27C203.838 197.27 202.904 196.336 202.904 195.183C202.904 194.03 203.838 193.095 204.991 193.095C206.143 193.095 207.077 194.03 207.077 195.183C207.077 196.336 206.143 197.27 204.991 197.27Z" fill="#66CCFF"/>
<path d="M162.223 94.9719C162.216 102.654 164.898 110.097 169.805 116.007C174.711 121.917 181.531 125.921 189.081 127.325C189.928 130.374 191.44 133.198 193.509 135.592C195.578 137.986 198.153 139.892 201.046 141.17C203.94 142.449 207.082 143.07 210.244 142.987C213.407 142.905 216.512 142.122 219.335 140.694C226.719 151.504 238.077 158.954 250.93 161.421C263.784 163.887 277.091 161.169 287.949 153.86C290.713 158.311 294.829 161.76 299.695 163.7C304.561 165.641 309.92 165.971 314.987 164.643C320.054 163.315 324.563 160.399 327.852 156.321C331.142 152.243 333.04 147.218 333.267 141.983C340.465 140.293 347.027 136.571 352.172 131.259C357.317 125.946 360.829 119.267 362.289 112.016C363.75 104.765 363.097 97.2467 360.41 90.3556C357.723 83.4645 353.114 77.4905 347.132 73.144C349.086 66.2092 348.85 58.8398 346.458 52.044C344.065 45.2481 339.632 39.3577 333.765 35.1786C327.898 30.9995 320.884 28.7357 313.682 28.6969C306.48 28.6582 299.442 30.8464 293.53 34.9622C289.997 26.2621 283.795 18.9082 275.818 13.9596C267.84 9.01093 258.498 6.72288 249.138 7.42495C239.777 8.12703 230.881 11.783 223.73 17.8663C216.579 23.9497 211.543 32.1465 209.346 41.2763C206.051 39.5332 202.301 38.8409 198.601 39.2926C194.901 39.7443 191.428 41.3183 188.648 43.8029C185.868 46.2876 183.916 49.5639 183.052 53.1916C182.189 56.8193 182.456 60.6244 183.818 64.0956C177.491 66.4099 172.027 70.6122 168.164 76.1344C164.302 81.6566 162.228 88.2322 162.223 94.9719Z" stroke="#221E1D" stroke-width="2" stroke-miterlimit="10" stroke-linecap="round"/>
<path d="M235.505 183.437C230.608 183.437 226.638 179.465 226.638 174.566C226.638 169.666 230.608 165.695 235.505 165.695C240.403 165.695 244.373 169.666 244.373 174.566C244.373 179.465 240.403 183.437 235.505 183.437Z" stroke="#221E1D" stroke-width="2" stroke-miterlimit="10" stroke-linecap="round"/>
<path d="M220.9 192.308C219.171 192.308 217.77 190.906 217.77 189.177C217.77 187.447 219.171 186.046 220.9 186.046C222.628 186.046 224.03 187.447 224.03 189.177C224.03 190.906 222.628 192.308 220.9 192.308Z" stroke="#221E1D" stroke-width="2" stroke-miterlimit="10" stroke-linecap="round"/>
<path d="M207.86 198.053C206.707 198.053 205.773 197.118 205.773 195.966C205.773 194.813 206.707 193.878 207.86 193.878C209.012 193.878 209.946 194.813 209.946 195.966C209.946 197.118 209.012 198.053 207.86 198.053Z" stroke="#221E1D" stroke-width="2" stroke-miterlimit="10" stroke-linecap="round"/>
<path d="M149.704 525.476C150.492 525.718 151.32 525.801 152.14 525.722C152.96 525.642 153.756 525.402 154.483 525.014C155.21 524.626 155.853 524.099 156.376 523.462C156.898 522.825 157.29 522.09 157.529 521.302L182.645 439.657H201.866V521.396C201.866 523.056 202.526 524.649 203.7 525.823C204.873 526.998 206.466 527.657 208.126 527.657C209.786 527.657 211.378 526.998 212.552 525.823C213.726 524.649 214.385 523.056 214.385 521.396V439.652H229.475L254.581 521.302C255.11 522.834 256.212 524.102 257.657 524.838C259.101 525.574 260.774 525.721 262.325 525.247C263.875 524.774 265.181 523.718 265.969 522.301C266.756 520.883 266.963 519.216 266.547 517.649L242.552 439.668H244.639C247.198 439.668 249.653 438.65 251.462 436.84C253.272 435.03 254.289 432.574 254.289 430.014C254.289 427.454 253.272 424.998 251.462 423.188C249.653 421.377 247.198 420.36 244.639 420.36H160.137C157.577 420.36 155.123 421.377 153.313 423.188C151.504 424.998 150.487 427.454 150.487 430.014C150.487 432.574 151.504 435.03 153.313 436.84C155.123 438.65 157.577 439.668 160.137 439.668H169.526L145.584 517.649C145.094 519.234 145.253 520.948 146.026 522.415C146.798 523.883 148.121 524.983 149.704 525.476Z" fill="#FFB266"/>
<path d="M233.654 443.059L257.711 521.302C257.952 522.088 258.346 522.818 258.871 523.452C259.395 524.086 260.038 524.61 260.765 524.994C261.491 525.379 262.287 525.617 263.105 525.694C263.924 525.772 264.749 525.687 265.535 525.445V525.445C267.115 524.956 268.437 523.862 269.213 522.401C269.989 520.941 270.155 519.232 269.676 517.649L246.642 442.71" stroke="#221E1D" stroke-width="2" stroke-miterlimit="10" stroke-linecap="round"/>
<path d="M246.146 442.146C248.42 441.788 250.491 440.628 251.985 438.876C253.48 437.124 254.298 434.895 254.294 432.592V432.592C254.294 430.031 253.277 427.576 251.468 425.765C249.658 423.955 247.203 422.938 244.644 422.938H160.137C157.577 422.938 155.123 423.955 153.313 425.765C151.503 427.576 150.487 430.031 150.487 432.592V432.592C150.487 435.152 151.503 437.608 153.313 439.418C155.123 441.228 157.577 442.245 160.137 442.245H244.639C245.142 442.247 245.644 442.209 246.141 442.131" stroke="#221E1D" stroke-width="2" stroke-miterlimit="10" stroke-linecap="round"/>
<path d="M185.571 442.016L161.18 521.302C160.941 522.091 160.55 522.825 160.027 523.462C159.504 524.099 158.861 524.626 158.134 525.014C157.407 525.402 156.611 525.642 155.791 525.722C154.971 525.801 154.143 525.718 153.356 525.476V525.476C152.57 525.234 151.84 524.84 151.206 524.316C150.573 523.792 150.049 523.148 149.664 522.421C149.28 521.694 149.042 520.898 148.965 520.08C148.887 519.261 148.972 518.435 149.214 517.649L171.878 442.788" stroke="#221E1D" stroke-width="2" stroke-miterlimit="10" stroke-linecap="round"/>
<path d="M211.777 442.371V521.396C211.777 523.056 211.117 524.649 209.944 525.823C208.77 526.998 207.178 527.657 205.517 527.657V527.657C203.857 527.657 202.265 526.998 201.091 525.823C199.917 524.649 199.258 523.056 199.258 521.396V442.929" stroke="#221E1D" stroke-width="2" stroke-miterlimit="10" stroke-linecap="round"/>
</svg>
