<svg width="279" height="540" viewBox="0 0 279 540" fill="none" xmlns="http://www.w3.org/2000/svg">
<path d="M43.9498 151.679L23.4 147.746L24.5158 154.881L55.492 161.471L55.5173 161.44L62.3386 166.482L86.448 184.311L97.1874 169.83L67.0544 147.55L62.7879 132.141L57.032 132.978L58.9658 139.634L41.0365 119.627L37.487 123.287L49.9178 139.83L31.6401 125.713L27.4645 131.824L45.8987 145.326L25.0712 134.803L20.825 139.916L43.9498 151.679Z" fill="#FFBB55"/>
<path d="M58.5568 173.839L112.496 209.133C115.737 211.26 119.387 212.69 123.212 213.331C127.037 213.972 130.954 213.809 134.712 212.854H134.743C138.282 211.969 141.613 210.4 144.548 208.235H144.588C146.305 206.884 147.881 205.364 149.294 203.698L150.809 201.797L187.612 155.43L150.753 133.109L126.093 181.114L75.5217 148.009L58.5568 173.839Z" fill="#66CCFF"/>
<path d="M145.972 143.965L126.82 183.353L74.2544 151.286" stroke="black" stroke-width="2" stroke-miterlimit="10" stroke-linecap="round"/>
<path d="M171.843 164.622C171.843 164.622 148.86 219.862 119.242 208.195C89.6238 196.528 56.6886 168.439 56.6886 168.439" stroke="black" stroke-width="2" stroke-miterlimit="10" stroke-linecap="round"/>
<path d="M62.6971 132.025L57.446 133.684L59.0213 139.281L40.5921 120.378L38.2797 123.837L49.7512 139.719L31.2362 126.106L27.409 131.738L46.1159 145.382L24.6522 135.59L22.2741 140.077L43.9043 151.553L23.9857 148.835L24.5108 154.8L55.6839 160.578L61.9649 165.499L71.5532 150.716L65.984 147.55L62.6971 132.025Z" stroke="black" stroke-width="2" stroke-linecap="round" stroke-linejoin="round"/>
<path d="M120.11 88.9061C120.116 90.569 120.754 92.1677 121.896 93.3782C123.038 94.5887 124.598 95.3205 126.26 95.4254L132.475 95.7985L132.4 97.0288C132.027 103.147 133.895 109.193 137.655 114.038C141.415 118.883 146.812 122.197 152.838 123.363L155.181 129.782L173.898 126.555C173.898 126.555 172.676 123.131 171.54 120.035C174.968 117.906 177.835 114.986 179.899 111.522C181.964 108.057 183.166 104.149 183.406 100.125L184.289 85.5834C184.69 78.8976 182.415 72.3267 177.964 67.3155C173.514 62.3043 167.254 59.2632 160.558 58.8607L160.054 58.8304C153.355 58.4264 146.77 60.696 141.747 65.1401C136.723 69.5841 133.674 75.8386 133.268 82.5279V82.78L127.058 82.4019C125.324 82.2998 123.62 82.8883 122.319 84.0385C121.019 85.1886 120.228 86.8067 120.12 88.538C120.11 88.6338 120.11 88.7699 120.11 88.9061Z" fill="#FFBB55"/>
<path d="M152.051 73.3474L152.056 73.3477C156.841 73.6374 160.485 77.7457 160.194 82.5237L160.03 85.2313C159.74 90.0093 155.626 93.6478 150.841 93.358L150.836 93.3577C146.051 93.068 142.408 88.9598 142.698 84.1818L142.862 81.4742C143.153 76.6962 147.267 73.0577 152.051 73.3474Z" fill="white"/>
<path d="M142.464 86.2113C142.068 83.348 143.346 80.8065 145.318 80.5346C147.291 80.2627 149.211 82.3634 149.606 85.2267C150.002 88.09 148.724 90.6315 146.752 90.9034C144.78 91.1753 142.86 89.0746 142.464 86.2113Z" fill="black"/>
<path d="M169.622 56.2336H169.657C169.662 56.2155 169.662 56.1963 169.657 56.1782L169.622 56.2336Z" fill="black"/>
<path d="M169.622 56.2336H169.657C169.662 56.2155 169.662 56.1963 169.657 56.1782L169.622 56.2336Z" fill="black"/>
<path d="M169.622 56.2336H169.657C169.662 56.2155 169.662 56.1963 169.657 56.1782L169.622 56.2336Z" fill="black"/>
<path d="M129.623 56.2992C129.807 53.2722 131.187 50.4421 133.459 48.4296C135.73 46.4172 138.709 45.3869 141.741 45.5647C142.179 45.591 142.616 45.6432 143.048 45.721C143.2 44.1871 143.918 42.7644 145.062 41.7296C146.206 40.6947 147.695 40.1216 149.238 40.1216C150.782 40.1216 152.271 40.6947 153.415 41.7296C154.559 42.7644 155.276 44.1871 155.429 45.721C156.97 45.1265 158.63 44.9033 160.274 45.0698C161.918 45.2362 163.5 45.7876 164.891 46.679C166.038 45.4449 167.539 44.5949 169.189 44.2452C170.839 43.8955 172.556 44.0632 174.107 44.7254C175.657 45.3876 176.965 46.5119 177.851 47.9446C178.738 49.3773 179.159 51.0484 179.058 52.7294C179.058 52.8555 179.058 52.9815 179.023 53.1076C179.462 53.1076 179.902 53.1076 180.346 53.1076C184.764 53.3776 188.894 55.3878 191.829 58.6967C194.764 62.0055 196.263 66.3424 195.998 70.7547C195.893 72.5486 195.493 74.3132 194.817 75.9782C195.975 77.1211 196.891 78.4854 197.509 79.9897C198.128 81.4939 198.436 83.1072 198.417 84.7333C198.397 86.3593 198.049 87.9646 197.394 89.4534C196.739 90.9422 195.79 92.2839 194.604 93.3984C195.07 94.9548 195.188 96.5942 194.95 98.2011C194.713 99.808 194.126 101.344 193.231 102.7C192.336 104.056 191.155 105.2 189.769 106.051C188.384 106.903 186.829 107.441 185.213 107.628C183.597 107.815 181.96 107.646 180.417 107.133C178.873 106.621 177.461 105.777 176.279 104.661C175.097 103.545 174.174 102.184 173.575 100.674C172.976 99.1637 172.716 97.5408 172.813 95.9194C172.858 95.1362 172.989 94.3603 173.201 93.6051C172.155 93.4024 171.183 92.9205 170.389 92.2104C169.596 91.5003 169.009 90.5886 168.693 89.5723C168.376 88.556 168.342 87.473 168.592 86.4386C168.843 85.4042 169.37 84.4569 170.116 83.6975C168.065 82.3432 166.339 80.5522 165.063 78.453C163.787 76.3539 162.992 73.9986 162.735 71.5563C161.443 71.2059 160.252 70.5569 159.258 69.6617C158.265 68.7665 157.496 67.6503 157.014 66.4034C156.522 67.3501 155.795 68.1544 154.901 68.7386C154.008 69.3228 152.978 69.6673 151.913 69.7387C150.847 69.8102 149.781 69.6062 148.817 69.1465C147.854 68.6868 147.025 67.9869 146.411 67.1143C144.612 68.0644 142.592 68.519 140.559 68.4314C138.526 68.3439 136.553 67.7173 134.842 66.6161C133.132 65.5149 131.746 63.9788 130.827 62.1656C129.908 60.3525 129.489 58.3276 129.613 56.2992H129.623ZM169.657 56.2589C169.662 56.2407 169.662 56.2215 169.657 56.2034L169.617 56.2336L169.657 56.2589Z" fill="black"/>
<path d="M139.706 100.992C139.557 103.46 140.395 105.885 142.037 107.736C143.679 109.586 145.99 110.71 148.461 110.859C150.929 111.004 153.353 110.165 155.203 108.527C157.053 106.889 158.176 104.585 158.327 102.121" stroke="black" stroke-width="2" stroke-miterlimit="10" stroke-linecap="round"/>
<path d="M157.554 134.37L152.505 122.879C152.505 122.879 132.763 121.013 132.309 95.6521L125.457 95.0975C123.763 94.9472 122.193 94.1496 121.073 92.8711C119.954 91.5926 119.372 89.9319 119.449 88.2353V88.2353C119.491 87.3527 119.711 86.4877 120.095 85.6917C120.479 84.8956 121.019 84.1848 121.684 83.6016C122.349 83.0183 123.124 82.5744 123.964 82.2964C124.804 82.0184 125.691 81.9119 126.573 81.9832L133.137 82.5227C133.137 82.5227 133.788 69.121 143.558 64.9866" stroke="black" stroke-width="2" stroke-miterlimit="10" stroke-linecap="round"/>
<path d="M173.671 125.244L171.313 120.151C171.313 120.151 179.316 115.714 182.734 103.18" stroke="black" stroke-width="2" stroke-miterlimit="10" stroke-linecap="round"/>
<path d="M6.88446 526.407L273.476 529.422L189.141 125.052L152.283 130.099L6.88446 526.407Z" fill="#66CCFF"/>
<path d="M52.5484 524.118L268.144 525.116L189.323 124.967L155.817 131.36" stroke="black" stroke-width="2" stroke-miterlimit="10" stroke-linecap="round"/>
<path d="M102.055 248.511L81.106 258.237L84.6252 264.751L105.099 254.602L86.1703 268.24L88.7705 274.356L109.856 259.246L96.9198 275.672L103.776 277.956L123.867 253.503L123.852 253.467L131.471 249.736L158.403 236.536L150.45 220.356L116.793 236.854L101.126 233.561L99.2272 239.057L106.033 240.398L80.0053 247.109L81.6311 251.94L102.055 248.511Z" fill="#FFBB55"/>
<path d="M100.979 233.592L100.045 239.012L105.751 240.182L80.4699 247.851L82.4845 251.491L101.878 248.607L81.2676 258.782L84.5192 264.762L105.246 254.435L86.6802 268.972L89.5784 273.146L109.719 259.23L98.1568 275.652L103.701 277.926L123.16 252.923L130.426 249.61L121.675 234.323L116.303 237.807L100.979 233.592Z" stroke="black" stroke-width="2" stroke-linecap="round" stroke-linejoin="round"/>
<path d="M151.021 130.855L126.068 211.876" stroke="black" stroke-width="2" stroke-miterlimit="10" stroke-linecap="round"/>
<path d="M45.4948 110.188C45.4948 107.404 47.7554 105.146 50.5439 105.146C53.3325 105.146 55.593 107.404 55.593 110.188V183.802C55.593 186.586 53.3325 188.844 50.5439 188.844C47.7554 188.844 45.4948 186.586 45.4948 183.802V110.188Z" fill="#66CCFF"/>
<path d="M47.5145 111.696C47.5145 108.911 49.775 106.654 52.5636 106.654C55.3521 106.654 57.6127 108.911 57.6127 111.696V185.309C57.6127 188.094 55.3521 190.351 52.5636 190.351C49.775 190.351 47.5145 188.094 47.5145 185.309V111.696Z" stroke="black" stroke-width="2" stroke-miterlimit="10" stroke-linecap="round"/>
<path d="M50.7964 50.4353H53.8258V107.914H50.7964V50.4353Z" fill="black"/>
<path d="M196.831 85.1243L225.762 4.60327L152.02 40.926L196.831 85.1243Z" fill="#66CCFF"/>
<path d="M200.87 88.6538L229.802 8.13281L156.06 44.4555L200.87 88.6538Z" stroke="black" stroke-width="2" stroke-miterlimit="10" stroke-linecap="round"/>
<path d="M52.306 27.595L47.1711 43.3765L30.5546 43.3815L44.0003 53.1328L38.8603 68.9193L52.306 59.163L65.7518 68.9193L60.6169 53.1328L74.0626 43.3765H57.441L52.306 27.595Z" fill="#FFB266"/>
<path d="M54.8306 25.8303L49.6957 41.6118L33.0791 41.6169L46.5248 51.3681L41.3849 67.1547L54.8306 57.3984L68.2763 67.1547L63.1414 51.3681L76.5871 41.6118H59.9655L54.8306 25.8303Z" stroke="black" stroke-width="2" stroke-miterlimit="10"/>
<path d="M115.41 228.908L130.597 255.812L186.804 224.198C190.194 222.295 193.148 219.706 195.478 216.597C197.808 213.488 199.463 209.927 200.335 206.143C200.333 206.128 200.333 206.113 200.335 206.098C201.173 202.456 201.271 198.685 200.623 195.005C200.218 192.957 199.613 190.955 198.815 189.025L197.806 186.807L173.504 132.857L147.724 152.773L168.157 199.24L115.41 228.908Z" fill="#66CCFF"/>
<path d="M149.001 156.57L176.089 200.284L123.422 232.185" stroke="black" stroke-width="2" stroke-miterlimit="10" stroke-linecap="round"/>
<path d="M164.148 134.385C164.148 134.385 220.193 193.881 193.332 217.276C169.339 238.175 129.239 254.506 129.239 254.506" stroke="black" stroke-width="2" stroke-miterlimit="10" stroke-linecap="round"/>
</svg>
