<svg width="420" height="550" viewBox="0 0 420 550" fill="none" xmlns="http://www.w3.org/2000/svg">
<path d="M126.493 162.762L105.633 157.589L106.39 164.99L137.169 173.294L181.279 212.952L193.656 199.143L150.168 160.04L145.579 138.726L139.627 139.25L142.276 150.858L125.264 129.632L121.427 133.205L133.264 150.9L115.298 135.376L110.683 141.437L128.841 156.337L108.064 144.366L103.429 149.393L126.493 162.762Z" fill="#FFBB55"/>
<path d="M126.493 162.762L105.633 157.589L106.39 164.99L137.169 173.294L181.279 212.952L193.656 199.143L150.168 160.04L145.579 138.726L139.627 139.25L142.276 150.858L125.264 129.632L121.427 133.205L133.264 150.9L115.298 135.376L110.683 141.437L128.841 156.337L108.064 144.366L103.429 149.393L126.493 162.762Z" stroke="black" stroke-width="2" stroke-linecap="round" stroke-linejoin="round"/>
<path d="M133.778 179.636L182.088 224.529C182.857 225.249 183.669 225.922 184.52 226.544L185.666 227.583C195.404 236.308 207.822 236.308 220.07 227.323L275.852 183.578L243.429 153.688L200.957 201.08L154.202 157.63L133.778 179.636Z" fill="#FFB266"/>
<path d="M236.704 161.78L200.703 201.324L186.169 190.033" stroke="black" stroke-width="2" stroke-miterlimit="10" stroke-linecap="round"/>
<path d="M6.19612 62.5973L177.95 29.2441L230.066 298.49L58.3124 331.843L6.19612 62.5973Z" fill="#66CCFF"/>
<path d="M377.097 496.592L318.476 505.503C314.597 506.093 310.871 507.442 307.513 509.474C304.154 511.505 301.228 514.18 298.902 517.344C296.575 520.508 294.893 524.101 293.953 527.916C293.012 531.731 292.831 535.695 293.42 539.58L381.595 526.176L377.112 496.589L377.097 496.592Z" fill="black"/>
<path d="M349.692 436.611L349.697 436.611C359.609 435.104 368.864 441.931 370.368 451.859L377.542 499.202C379.047 509.13 372.231 518.4 362.318 519.907L362.313 519.908C352.401 521.415 343.146 514.588 341.641 504.659L334.468 457.317C332.963 447.388 339.779 438.118 349.692 436.611Z" fill="#FFBB55" stroke="black" stroke-width="2" stroke-miterlimit="10"/>
<path d="M281.773 192.162C294.434 191.488 306.941 195.197 317.194 202.669C327.446 210.14 334.819 220.918 338.074 233.192L402.308 475.394L307.093 479.139L274.685 257.015L281.773 192.162Z" fill="#FCDBAA"/>
<path d="M343.041 255.524C343.472 257.082 400.327 468.289 400.327 468.289L311.287 470.886" stroke="black" stroke-width="2" stroke-miterlimit="10" stroke-linecap="round"/>
<path d="M142.14 493.678L100.736 451.166C95.2029 445.485 87.6432 442.238 79.7199 442.14C71.7966 442.042 64.1588 445.1 58.4868 450.642L120.764 514.585L142.15 493.689L142.14 493.678Z" fill="black"/>
<path d="M174.812 436.406L174.816 436.409C181.817 443.598 181.674 455.109 174.498 462.122L140.277 495.559C133.1 502.571 121.607 502.429 114.606 495.24L114.602 495.237C107.601 488.049 107.744 476.537 114.92 469.524L149.142 436.087C156.318 429.075 167.811 429.217 174.812 436.406Z" fill="#FFBB55" stroke="black" stroke-width="2" stroke-miterlimit="10"/>
<path d="M335.305 232.568C343.44 242.309 347.98 254.557 348.162 267.255C348.344 279.953 344.158 292.326 336.306 302.297L181.352 499.051L121.25 424.985L279.258 265.781L335.305 232.568Z" fill="#FCDBAA"/>
<path d="M207.76 101.405C207.802 103.167 208.531 104.843 209.79 106.075C211.05 107.307 212.74 107.996 214.501 107.995H214.651L221.044 107.86L221.07 109.133C221.201 115.391 223.58 121.392 227.77 126.036C231.961 130.679 237.682 133.654 243.885 134.415L251.948 149.881L269.246 140.834L263.221 129.32C266.497 126.841 269.139 123.618 270.929 119.915C272.718 116.213 273.604 112.139 273.513 108.026L273.202 93.0222C273.05 86.1253 270.17 79.5711 265.196 74.7994C260.222 70.0277 253.561 67.4288 246.675 67.5736H246.156C239.27 67.7235 232.726 70.6061 227.962 75.5876C223.197 80.5692 220.603 87.2419 220.749 94.1388V94.3985L214.355 94.5335C212.572 94.5717 210.877 95.3163 209.64 96.6042C208.404 97.8921 207.728 99.6183 207.76 101.405Z" fill="#FFBB55"/>
<path d="M239.176 83.175L239.182 83.1749C244.103 83.0707 248.177 86.9825 248.281 91.9121L248.34 94.7056C248.444 99.6352 244.539 103.716 239.617 103.82L239.612 103.82C234.69 103.924 230.616 100.012 230.512 95.0828L230.453 92.2893C230.349 87.3597 234.255 83.2791 239.176 83.175Z" fill="#F8FAFC"/>
<path d="M230.134 93.855C230.072 90.8783 231.678 88.4302 233.722 88.387C235.766 88.3437 237.474 90.7217 237.537 93.6984C237.6 96.6751 235.994 99.1232 233.949 99.1664C231.905 99.2097 230.197 96.8317 230.134 93.855Z" fill="black"/>
<path d="M217.384 66.5142C217.427 68.6069 218.026 70.6503 219.119 72.4344C220.212 74.2185 221.76 75.6789 223.603 76.6657C225.446 77.6524 227.518 78.1299 229.606 78.049C231.695 77.9681 233.724 77.3318 235.485 76.2054C236.188 77.0454 237.094 77.6906 238.117 78.0792C239.14 78.4678 240.245 78.5867 241.327 78.4246C242.409 78.2625 243.431 77.8248 244.296 77.1534C245.161 76.482 245.839 75.5994 246.265 74.5902C246.144 74.3462 246.038 74.0946 245.949 73.8371C246.135 73.8683 246.317 73.8891 246.504 73.9098C246.44 74.1421 246.361 74.3694 246.265 74.5902C246.903 75.9092 247.862 77.0465 249.054 77.8977C250.245 78.7489 251.631 79.2867 253.084 79.4618C253.613 82.7811 255.117 85.8673 257.405 88.3269C259.692 90.7864 262.659 92.5078 265.927 93.2715C266.157 94.6422 266.62 95.9633 267.296 97.1771C266.423 98.4296 265.813 99.8468 265.504 101.343C265.195 102.838 265.192 104.382 265.497 105.878C265.801 107.375 266.406 108.795 267.275 110.05C268.144 111.305 269.259 112.371 270.552 113.181C271.844 113.992 273.288 114.531 274.795 114.765C276.302 114.999 277.841 114.925 279.318 114.545C280.796 114.165 282.18 113.489 283.389 112.557C284.597 111.625 285.603 110.456 286.347 109.122C289.822 113.04 294.402 115.809 299.483 117.062C304.563 118.316 309.903 117.996 314.798 116.144C319.692 114.292 323.911 110.996 326.894 106.691C329.878 102.386 331.487 97.275 331.508 92.0344C331.529 86.7938 329.962 81.6702 327.013 77.3412C324.064 73.0121 319.873 69.6815 314.994 67.7898C310.115 65.8981 304.777 65.5344 299.687 66.7468C294.596 67.9592 289.993 70.6906 286.487 74.5798C285.897 70.1466 283.582 66.1265 280.045 63.3965C276.508 60.6664 272.037 59.4479 267.607 60.0066C267.674 59.5633 267.702 59.1149 267.69 58.6667C267.655 56.931 267.085 55.2487 266.058 53.85C265.032 52.4514 263.598 51.4049 261.955 50.8539C260.311 50.3029 258.538 50.2742 256.877 50.7719C255.217 51.2697 253.75 52.2693 252.679 53.6341C251.186 52.8315 249.525 52.3939 247.831 52.3568C246.136 52.3198 244.458 52.6845 242.931 53.4212C242.642 51.8638 241.786 50.4691 240.53 49.507C239.274 48.545 237.705 48.084 236.129 48.2132C234.553 48.3425 233.081 49.0528 231.997 50.2067C230.914 51.3606 230.296 52.8761 230.264 54.4599C228.611 54.3069 226.945 54.5049 225.374 55.041C223.802 55.5771 222.362 56.4393 221.146 57.5711C219.931 58.7029 218.967 60.079 218.319 61.6093C217.67 63.1396 217.352 64.7897 217.384 66.4519V66.5142Z" fill="black"/>
<path d="M252.84 92.7158C252.877 94.5152 253.446 96.263 254.475 97.7382C255.505 99.2135 256.947 100.35 258.621 101.004C260.295 101.658 262.125 101.8 263.88 101.412C265.634 101.025 267.235 100.124 268.478 98.8255C269.722 97.5267 270.554 95.8876 270.867 94.1156C271.181 92.3435 270.963 90.5181 270.241 88.8701C269.519 87.2221 268.325 85.8257 266.811 84.8573C265.296 83.8889 263.529 83.3921 261.732 83.4297C259.324 83.4802 257.034 84.4868 255.366 86.2283C253.699 87.9697 252.79 90.3033 252.84 92.7158Z" fill="#FFBB55"/>
<path d="M228.859 112.586C228.913 115.133 229.975 117.553 231.811 119.315C233.647 121.077 236.106 122.036 238.648 121.982C239.907 121.956 241.148 121.682 242.301 121.176C243.454 120.669 244.496 119.94 245.367 119.029C246.238 118.119 246.922 117.046 247.378 115.871C247.835 114.696 248.056 113.442 248.028 112.181" stroke="black" stroke-width="2" stroke-miterlimit="10" stroke-linecap="round"/>
<path d="M247.644 295L360.023 242.01L272.362 132.192L240.95 150.661L247.644 295Z" fill="#FFB266"/>
<path d="M345.204 248.975C345.204 248.975 358.016 274.86 315.565 327.679C273.114 380.497 181.269 498.921 181.269 498.921" stroke="black" stroke-width="2" stroke-miterlimit="10" stroke-linecap="round"/>
<path d="M188.118 486.664C187.6 485.304 134.011 422.03 134.011 422.03" stroke="black" stroke-width="2" stroke-miterlimit="10" stroke-linecap="round"/>
<path d="M249.926 145.358L243.813 133.994C243.813 133.994 223.445 133.735 220.873 107.741H213.816C212.06 107.741 210.373 107.057 209.11 105.834C207.848 104.611 207.109 102.945 207.05 101.187V101.187C207.019 100.277 207.171 99.371 207.498 98.5219C207.824 97.6727 208.318 96.898 208.949 96.2438C209.58 95.5897 210.336 95.0694 211.173 94.714C212.009 94.3586 212.908 94.1754 213.816 94.1752H220.599C220.599 94.1752 220.142 80.3655 229.792 75.3018" stroke="black" stroke-width="2" stroke-miterlimit="10" stroke-linecap="round"/>
<path d="M265.658 134.633L262.816 129.601C262.816 129.601 270.636 124.376 273.083 111.22" stroke="black" stroke-width="2" stroke-miterlimit="10" stroke-linecap="round"/>
<path d="M177.852 28.5647L117.709 179.698L229.714 298.111L177.852 28.5647Z" fill="#FCDBAA"/>
<path d="M136.998 213.503L115.759 216.806L119.311 223.339L151.547 219.003L151.558 218.972L159.906 221.501L189.394 230.439L194.761 212.672L157.91 201.5L148.442 188.034L143.168 190.843L147.327 196.608L123.081 183.422L120.919 188.205L138.662 199.942L116.101 192.583L114.183 199.953L136.681 206.668L112.897 203.671L110.564 210.101L136.998 213.503Z" fill="#FFBB55"/>
<path d="M148.312 187.956L143.811 191.383L147.275 196.265L122.904 184.32L121.867 188.475L138.46 199.901L115.842 193.113L114.09 199.901L136.91 206.652L112.762 204.591L112.021 209.769L136.91 213.404L116.708 217.673L119.28 223.272L151.428 218.078L159.206 220.675L163.354 203.017L156.873 201.874L148.312 187.956Z" stroke="black" stroke-width="2" stroke-linecap="round" stroke-linejoin="round"/>
<path d="M222.973 297.073L60.1586 327.72L8.29636 64.4055" stroke="black" stroke-width="2" stroke-miterlimit="10" stroke-linecap="round"/>
<path d="M121.738 172.152L178.287 32.2002L209.347 199.916" stroke="black" stroke-width="2" stroke-miterlimit="10" stroke-linecap="round"/>
<path d="M179.926 52.4551C169.044 52.4551 160.222 43.6192 160.222 32.7195C160.222 21.8198 169.044 12.9839 179.926 12.9839C190.808 12.9839 199.63 21.8198 199.63 32.7195C199.63 43.6192 190.808 52.4551 179.926 52.4551Z" fill="#FFB266"/>
<path d="M180.185 48.5601C169.303 48.5601 160.482 39.7241 160.482 28.8245C160.482 17.9248 169.303 9.08887 180.185 9.08887C191.067 9.08887 199.889 17.9248 199.889 28.8245C199.889 39.7241 191.067 48.5601 180.185 48.5601Z" stroke="black" stroke-width="2" stroke-miterlimit="10" stroke-linecap="round"/>
<path d="M157.054 231.499L224.726 247.864C232.832 249.824 241.384 248.479 248.5 244.125C255.616 239.77 260.713 232.762 262.671 224.643L263.708 220.317L259.56 219.309L283.847 161.001L240.971 150.816L227.386 211.54L165.475 196.567L157.054 231.499Z" fill="#FFB266"/>
<path d="M247.598 294.907L348.351 245.729L269.184 133.241L239.317 151.575L228.319 215.513L166.118 201.423" stroke="black" stroke-width="2" stroke-miterlimit="10" stroke-linecap="round"/>
<path d="M267.976 183.51C267.976 183.51 264.864 245.049 232.198 243.989C199.531 242.93 157.946 227.095 157.946 227.095" stroke="black" stroke-width="2" stroke-miterlimit="10" stroke-linecap="round"/>
</svg>
