<svg width="68" height="24" viewBox="0 0 68 24" fill="none" xmlns="http://www.w3.org/2000/svg">
<path fill-rule="evenodd" clip-rule="evenodd" d="M35.5907 7.41251L38.7783 7.20723C38.851 7.72639 38.9843 8.1127 39.2025 8.39036C39.5539 8.82495 40.0387 9.04225 40.6811 9.04225C41.1538 9.04225 41.5295 8.9336 41.784 8.70423C42.0264 8.52315 42.1719 8.23342 42.1719 7.93161C42.1719 7.64188 42.0386 7.36416 41.8083 7.18308C41.5659 6.96578 40.9963 6.74848 40.0993 6.55533C38.6328 6.22938 37.5784 5.79477 36.9603 5.23944C36.3421 4.72033 35.9906 3.95977 36.0149 3.15091C36.0149 2.59558 36.1845 2.04025 36.4997 1.58149C36.8633 1.06238 37.3602 0.651913 37.9541 0.422536C38.5965 0.14487 39.4933 0 40.6205 0C42.0022 0 43.0566 0.253521 43.7839 0.772634C44.511 1.27968 44.9474 2.10061 45.0807 3.22335L41.9295 3.40443C41.8446 2.92153 41.675 2.57143 41.3962 2.34206C41.1175 2.11268 40.7538 2.00403 40.2811 2.00403C39.8933 2.00403 39.6024 2.08853 39.4085 2.24548C39.2267 2.39034 39.1055 2.60765 39.1176 2.8491C39.1176 3.03019 39.2146 3.1992 39.36 3.30785C39.5176 3.45272 39.8933 3.58552 40.4872 3.70624C41.9537 4.02013 42.996 4.33401 43.6384 4.65997C44.2808 4.98592 44.7413 5.38431 45.0201 5.85514C45.0447 5.896 45.0683 5.93737 45.0908 5.97924C45.6609 4.57104 46.6657 3.24241 48.0411 2.21002C51.4786 -0.370297 56.0643 -0.223847 58.257 2.67447C60.4497 5.57278 59.3273 10.0038 55.8896 12.5841C55.737 12.6987 55.5821 12.8079 55.4252 12.9118C56.6237 13.093 57.5889 13.5456 58.3158 14.2697C58.8046 14.7565 59.1733 15.3416 59.4187 16.0249V13.0141H62.7758V21.1509H68V23.8068H59.4187V20.7824C59.3388 21.0116 59.2458 21.2269 59.14 21.4286C58.7279 22.2254 58.0855 22.8773 57.2977 23.3119C56.4857 23.7586 55.4797 23.988 54.2798 23.988C53.0557 23.988 52.0497 23.7948 51.2498 23.4085C50.4256 22.998 49.7469 22.3582 49.2985 21.5735C48.8016 20.7284 48.5471 19.6781 48.5471 18.4105C48.5471 16.6999 49.0151 15.3532 49.9401 14.3813C48.2372 14.2234 46.6956 13.4704 45.6738 12.1197C45.1205 11.3883 44.7782 10.5594 44.631 9.68718C44.2583 10.1314 43.787 10.4807 43.2506 10.7083C42.5597 11.0101 41.6871 11.167 40.6447 11.167C38.8025 11.167 37.5299 10.8169 36.8148 10.1047C36.0997 9.39234 35.6755 8.49901 35.5907 7.41251ZM1.76356 10.9739V0.193159H7.35094C8.38112 0.193159 9.18102 0.277666 9.72647 0.458753C10.2597 0.627769 10.7324 0.977867 11.0475 1.44869C11.399 1.96781 11.5687 2.57143 11.5566 3.1992C11.5929 4.26157 11.0475 5.27566 10.1143 5.80685C9.75071 6.01208 9.3507 6.15695 8.93863 6.22938C9.24162 6.31389 9.54468 6.45875 9.81131 6.62776C10.0173 6.79677 10.187 6.98993 10.3446 7.19515C10.5264 7.40038 10.6839 7.62981 10.8173 7.87125L12.4414 10.998H8.63563L6.84187 7.6781C6.61159 7.25551 6.41767 6.97785 6.23587 6.84506C5.99347 6.67605 5.70259 6.59155 5.4117 6.59155H5.12082V10.9739H1.76356ZM5.12082 4.56338H6.53887C6.84187 4.53924 7.13278 4.49095 7.42366 4.41852C7.64181 4.3823 7.83573 4.26157 7.96905 4.08049C8.29628 3.64588 8.2478 3.03019 7.84785 2.65594C7.62969 2.47485 7.2055 2.37827 6.59947 2.37827H5.12082V4.56338ZM1 20.2334L4.18758 20.0282C4.2603 20.5473 4.39362 20.9336 4.61178 21.2113C4.95114 21.6459 5.44806 21.8753 6.09043 21.8753C6.56311 21.8753 6.93884 21.7666 7.19338 21.5372C7.43578 21.3441 7.58121 21.0664 7.58121 20.7646C7.58121 20.4749 7.4479 20.1972 7.21762 20.0161C6.9752 19.7988 6.40555 19.5815 5.49655 19.3883C4.03002 19.0624 2.97557 18.6278 2.35745 18.0725C1.73932 17.5534 1.38784 16.7927 1.41208 15.9839C1.41208 15.4286 1.58176 14.8733 1.89689 14.4145C2.26049 13.8954 2.75741 13.4849 3.35129 13.2556C3.99365 12.9779 4.89054 12.833 6.01771 12.833C7.39942 12.833 8.45384 13.0865 9.18102 13.6056C9.69132 13.9699 10.0524 14.4768 10.2685 15.1347C10.4566 14.8157 10.6798 14.5273 10.9384 14.2696C11.896 13.3159 13.2413 12.833 14.9866 12.833C16.3561 12.833 17.4227 13.1107 18.2105 13.6539C18.9862 14.2093 19.568 15.0544 19.9558 16.1891L16.9985 16.8411C16.9258 16.5875 16.8167 16.334 16.6713 16.1167C16.4894 15.8632 16.2591 15.67 15.9804 15.5252C15.7016 15.3803 15.3865 15.3199 15.0714 15.3199C14.3079 15.3199 13.7261 15.6218 13.3261 16.2374C13.0231 16.6841 12.8656 17.3964 12.8656 18.3622C12.8656 19.5574 13.0473 20.3783 13.4109 20.825C13.7745 21.2716 14.2836 21.4889 14.9502 21.4889C15.5926 21.4889 16.0774 21.3079 16.4046 20.9578C16.7319 20.5835 16.9743 20.0644 17.1197 19.3884L20.0528 20.2696C19.8952 21.006 19.568 21.7063 19.1195 22.322C18.7074 22.8652 18.162 23.2877 17.5439 23.5654C16.9137 23.8431 16.1137 23.988 15.1441 23.988C13.9685 23.988 12.9989 23.8189 12.2596 23.4809C11.5684 23.17 10.9695 22.6344 10.4535 21.8835C10.395 21.9964 10.3304 22.1066 10.2597 22.2133C9.85979 22.8049 9.30222 23.2636 8.64775 23.5413C7.95693 23.8431 7.0843 24 6.04195 24C4.1997 24 2.92709 23.6499 2.21201 22.9377C1.49692 22.2133 1.09696 21.3199 1 20.2334ZM7.31458 16.2374L9.83838 16.0924C9.66823 16.6082 9.56415 17.1815 9.5255 17.8115C9.37271 17.7075 9.20538 17.6095 9.02347 17.5171C8.38112 17.1912 7.33882 16.8773 5.87227 16.5634C5.27839 16.4427 4.90266 16.3099 4.7451 16.165C4.59966 16.0563 4.5027 15.8873 4.5027 15.7063C4.49058 15.4648 4.59966 15.2475 4.79358 15.1026C4.9875 14.9336 5.27839 14.8491 5.66622 14.8491C6.13891 14.8371 6.51463 14.9457 6.78127 15.1751C7.06006 15.4045 7.22974 15.7545 7.31458 16.2374ZM27.3127 13.0141H23.9676V23.8068H27.3127V19.4367H30.9729V23.8068H34.3423V20.99C34.4276 21.1944 34.5246 21.3888 34.6332 21.5735C35.0816 22.3582 35.7603 22.998 36.5845 23.4085C37.3844 23.7948 38.3904 23.988 39.6145 23.988C40.8144 23.988 41.8204 23.7586 42.6324 23.3119C43.4203 22.8773 44.0626 22.2254 44.4747 21.4286C44.8989 20.6197 45.117 19.5936 45.117 18.326C45.117 16.5875 44.6322 15.2354 43.6505 14.2697C42.6688 13.3038 41.2871 12.821 39.4812 12.821C37.7238 12.821 36.3421 13.3159 35.3604 14.2938C34.9256 14.7269 34.5859 15.2381 34.3423 15.8265V13.0141H30.9729V16.7927H27.3127V13.0141ZM37.2269 18.4226C37.2269 19.5091 37.4329 20.2938 37.8329 20.7767C38.2328 21.2475 38.7904 21.489 39.4933 21.489C40.2084 21.489 40.7659 21.2596 41.1659 20.7887C41.5659 20.3179 41.7598 19.485 41.7598 18.2777C41.7598 17.2636 41.5538 16.5151 41.1417 16.0563C40.7296 15.5855 40.1721 15.3562 39.4691 15.3562C38.851 15.332 38.2571 15.5976 37.845 16.0684C37.4329 16.5392 37.2269 17.324 37.2269 18.4226ZM52.4982 20.7767C52.0982 20.2938 51.8922 19.5091 51.8922 18.4226C51.8922 17.324 52.0982 16.5392 52.5103 16.0684C52.9102 15.5976 53.5163 15.332 54.1344 15.3562C54.8373 15.3562 55.3949 15.5855 55.807 16.0563C56.219 16.5151 56.4251 17.2636 56.4251 18.2777C56.4251 19.485 56.2312 20.3179 55.8312 20.7887C55.4313 21.2596 54.8737 21.489 54.1586 21.489C53.4557 21.489 52.8981 21.2475 52.4982 20.7767ZM48.3329 2.59568C45.0347 5.0713 44.0802 9.2109 46.0609 11.8291C48.0417 14.4472 52.2998 14.6741 55.5979 12.1985C58.8959 9.72286 59.8506 5.58324 57.8698 2.96509C55.889 0.346941 51.631 0.120063 48.3329 2.59568ZM48.5592 6.60368L49.7712 5.7586L51.2619 7.87125C51.5165 8.20933 51.7104 8.5715 51.8558 8.96988C51.9406 9.27168 51.9164 9.59763 51.7952 9.88736C51.6377 10.2495 51.3831 10.5514 51.0438 10.7687C50.6438 11.0463 50.3045 11.2033 50.0136 11.2516C49.7348 11.2999 49.4439 11.2516 49.1773 11.1309C48.8864 10.986 48.6319 10.7808 48.438 10.5152L49.4803 9.54934C49.5651 9.68214 49.6742 9.80286 49.7954 9.89943C49.8803 9.95979 49.9772 9.99601 50.0863 9.99601C50.1712 9.99601 50.256 9.95979 50.3166 9.91151C50.4378 9.83907 50.5226 9.69421 50.5105 9.54934C50.4742 9.34412 50.3893 9.13889 50.256 8.98195L48.5592 6.60368ZM52.1952 7.94375L53.2981 7.07449C53.4193 7.21936 53.5769 7.32801 53.7466 7.38837C53.9889 7.4608 54.2435 7.41251 54.4495 7.25557C54.595 7.159 54.7162 7.0262 54.7647 6.85719C54.8374 6.63989 54.7162 6.39845 54.498 6.32602C54.4616 6.31395 54.4253 6.30188 54.3889 6.30188C54.2435 6.2898 53.9889 6.35016 53.6132 6.5071C52.9951 6.76062 52.5103 6.85719 52.1467 6.82098C51.7952 6.78476 51.468 6.60368 51.2741 6.30188C51.1286 6.09665 51.0559 5.85518 51.0438 5.61373C51.0438 5.33607 51.1165 5.0584 51.2741 4.82903C51.5043 4.50307 51.7831 4.2254 52.1225 4.0081C52.6315 3.658 53.08 3.48898 53.4678 3.48898C53.8556 3.48898 54.2192 3.67007 54.5586 4.04432L53.4678 4.90146C53.2496 4.62379 52.8376 4.56343 52.5588 4.78074L52.5225 4.81695C52.4013 4.88939 52.3164 4.99804 52.2679 5.13084C52.2316 5.22742 52.2558 5.33607 52.3164 5.42058C52.3649 5.48094 52.4376 5.52923 52.5225 5.52923C52.6194 5.5413 52.7891 5.49301 53.0315 5.38436C53.6375 5.13084 54.098 4.98597 54.4131 4.93768C54.6798 4.88939 54.9586 4.91353 55.2131 5.02219C55.4434 5.11876 55.6373 5.28778 55.7706 5.49301C55.9403 5.73446 56.0372 6.02422 56.0494 6.32602C56.0615 6.6399 55.9766 6.9417 55.807 7.20729C55.5888 7.53323 55.3101 7.81089 54.9828 8.02825C54.3162 8.48699 53.7708 8.68015 53.3345 8.60771C52.8618 8.53528 52.474 8.29384 52.1952 7.94375Z" fill="#E6E6E6"/>
</svg>
