<svg width="100" height="40" viewBox="0 0 100 40" fill="none" xmlns="http://www.w3.org/2000/svg">
<path d="M99.0437 19.8288C87.6761 41.739 10.2464 48.9443 1.06321 25.4481C-12.7078 -9.78651 112.081 -5.30047 99.0437 19.8288Z" fill="white"/>
<path d="M28.2356 23.1989C28.5975 23.1989 28.8642 23.3417 29.0356 23.6275C29.2261 23.8941 29.3213 24.1894 29.3213 24.5132C29.3213 24.9132 29.2546 25.1989 29.1213 25.3703C29.007 25.5227 28.7785 25.6846 28.4356 25.856C27.6356 26.237 26.6451 26.5417 25.4642 26.7703C24.2832 26.9989 23.0165 27.1132 21.6642 27.1132C19.9689 27.1132 18.7213 26.8275 17.9213 26.256C17.1404 25.6846 16.6546 24.9989 16.4642 24.1989C16.2927 23.3798 16.207 22.3132 16.207 20.9989C16.207 19.5894 16.2642 18.2084 16.3785 16.856C16.4927 15.4846 16.6927 13.7417 16.9785 11.6275C17.1118 10.7132 17.4737 10.056 18.0642 9.65602C18.6546 9.23698 19.3023 9.02745 20.007 9.02745C20.5975 9.02745 21.5594 9.0084 22.8927 8.97031L25.3785 8.94174C26.407 8.94174 27.1499 8.97031 27.607 9.02745C28.1785 9.14174 28.5975 9.27507 28.8642 9.42745C29.1499 9.56079 29.2927 9.79888 29.2927 10.1417C29.2927 10.5227 29.1594 10.8941 28.8927 11.256C28.6451 11.6179 28.2642 11.7989 27.7499 11.7989C27.1594 11.7989 26.3118 11.7608 25.207 11.6846C24.1023 11.6084 23.2737 11.5703 22.7213 11.5703C22.2451 11.5703 21.7785 11.5989 21.3213 11.656C20.788 11.6941 20.407 11.7608 20.1785 11.856C19.9499 11.9513 19.8165 12.1132 19.7785 12.3417C19.5118 14.3036 19.3785 15.7513 19.3785 16.6846C19.8165 16.7417 20.2451 16.7703 20.6642 16.7703C21.1975 16.7703 21.7689 16.7417 22.3785 16.6846C22.988 16.6275 23.3785 16.5894 23.5499 16.5703C24.5594 16.4751 25.4261 16.4275 26.1499 16.4275C26.5689 16.4275 26.8832 16.5036 27.0927 16.656C27.3213 16.8084 27.4356 17.0179 27.4356 17.2846C27.4356 17.7036 27.3213 18.0275 27.0927 18.256C26.8832 18.4846 26.5023 18.656 25.9499 18.7703C25.2832 18.9036 24.4546 19.0084 23.4642 19.0846C22.4927 19.1608 21.5404 19.1989 20.607 19.1989C20.2832 19.1989 19.8356 19.1798 19.2642 19.1417C19.207 20.3036 19.1785 21.3798 19.1785 22.3703C19.1785 23.7227 20.0737 24.3989 21.8642 24.3989C22.8165 24.3989 23.607 24.3322 24.2356 24.1989C24.8642 24.0655 25.588 23.8751 26.407 23.6275C27.1689 23.3417 27.7785 23.1989 28.2356 23.1989ZM44.632 24.8846C44.7273 24.9227 44.8796 24.9703 45.0892 25.0275C45.2987 25.0846 45.4511 25.1417 45.5463 25.1989C45.6415 25.256 45.6892 25.3417 45.6892 25.456C45.7082 25.9132 45.5368 26.2941 45.1749 26.5989C44.832 26.8846 44.4225 27.0275 43.9463 27.0275C43.2035 27.0275 42.6225 26.8275 42.2035 26.4275C41.7844 26.0275 41.4796 25.4179 41.2892 24.5989C41.213 24.2751 41.1749 23.8275 41.1749 23.256C41.1749 22.9322 41.1939 22.4084 41.232 21.6846C41.2701 20.9227 41.2892 20.3132 41.2892 19.856C41.2892 19.1894 41.0987 18.6084 40.7177 18.1132C40.3558 17.5989 39.8415 17.3417 39.1749 17.3417C38.7749 17.3417 38.3558 17.4655 37.9177 17.7132C37.4796 17.9417 37.1749 18.2275 37.0035 18.5703C36.7177 19.1227 36.5177 19.7227 36.4035 20.3703C36.1939 21.5132 36.0892 22.7036 36.0892 23.9417C36.0892 24.5322 36.0987 24.9894 36.1177 25.3132C36.1177 25.3894 36.1177 25.5417 36.1177 25.7703C36.1368 25.9798 36.1177 26.1798 36.0606 26.3703C36.0225 26.5417 35.9463 26.7036 35.832 26.856C35.7368 26.9513 35.5844 27.0275 35.3749 27.0846C35.1844 27.1608 35.0035 27.1989 34.832 27.1989C34.5654 27.1989 34.232 27.0846 33.832 26.856C33.432 26.6275 33.2035 26.3703 33.1463 26.0846L33.1177 25.5989C33.1177 25.4275 33.1368 25.2275 33.1749 24.9989C33.4035 23.6655 33.5177 22.5036 33.5177 21.5132C33.5177 21.0751 33.5082 20.7322 33.4892 20.4846L33.4606 19.1417C33.4606 18.6846 33.3463 18.2465 33.1177 17.8275C32.8892 17.3894 32.6225 17.1703 32.3177 17.1703C32.2225 17.1703 32.0892 17.2084 31.9177 17.2846C31.7463 17.3417 31.6035 17.3703 31.4892 17.3703C31.2987 17.3703 31.0892 17.2751 30.8606 17.0846C30.6511 16.8941 30.5463 16.6941 30.5463 16.4846C30.5463 16.0846 30.6796 15.7608 30.9463 15.5132C31.232 15.2846 31.5082 15.1036 31.7749 14.9703C32.0606 14.837 32.3844 14.7703 32.7463 14.7703C33.0511 14.7703 33.2987 14.7989 33.4892 14.856C33.6796 14.9132 33.9368 15.037 34.2606 15.2275C34.432 15.3227 34.632 15.5322 34.8606 15.856C35.0892 16.1798 35.2796 16.637 35.432 17.2275C35.9273 16.3132 36.5368 15.6751 37.2606 15.3132C38.0035 14.9322 38.9463 14.7417 40.0892 14.7417C40.5273 14.7417 40.9939 14.8846 41.4892 15.1703C42.0035 15.456 42.4415 15.7894 42.8035 16.1703C43.1463 16.5894 43.432 17.1132 43.6606 17.7417C43.8892 18.3513 44.0035 18.9036 44.0035 19.3989C44.0035 19.6846 43.9844 20.1513 43.9463 20.7989C43.8892 21.3132 43.8606 21.856 43.8606 22.4275C43.8606 23.7608 44.1177 24.5798 44.632 24.8846ZM58.73 19.9132C58.73 20.7894 58.511 21.5322 58.0729 22.1417C57.6348 22.7322 57.0538 23.256 56.33 23.7132C55.3395 24.2465 54.1872 24.5227 52.8729 24.5417C52.7967 24.7703 52.7586 25.0084 52.7586 25.256C52.7586 25.4846 52.8824 25.656 53.13 25.7703C53.3967 25.8655 53.8633 25.9417 54.53 25.9989C55.0824 26.037 55.7014 26.1608 56.3872 26.3703C57.0919 26.5608 57.6443 26.7798 58.0443 27.0275C58.5395 27.3894 58.8824 27.7798 59.0729 28.1989C59.2824 28.6179 59.3872 29.1417 59.3872 29.7703C59.3872 30.5894 59.0062 31.2751 58.2443 31.8275C57.5014 32.3989 56.6253 32.8179 55.6157 33.0846C54.6062 33.3513 53.7205 33.4846 52.9586 33.4846C52.0443 33.4846 51.2633 33.3703 50.6157 33.1417C49.9872 32.9322 49.3872 32.637 48.8157 32.256C48.4157 31.9703 48.1014 31.6084 47.8729 31.1703C47.6443 30.7322 47.53 30.2751 47.53 29.7989C47.53 29.3227 47.6824 28.8655 47.9872 28.4275C48.311 27.9894 48.7014 27.6084 49.1586 27.2846C49.6157 26.9798 50.0443 26.7703 50.4443 26.656C50.2919 26.4655 50.1776 26.3036 50.1014 26.1703C50.0443 26.0179 50.0157 25.8465 50.0157 25.656C50.0157 25.0084 50.1776 24.4655 50.5014 24.0275C49.5872 23.7227 48.8633 23.1798 48.33 22.3989C47.8157 21.6179 47.5586 20.7036 47.5586 19.656C47.5586 18.9703 47.7205 18.3513 48.0443 17.7989C48.3681 17.2275 48.8157 16.6846 49.3872 16.1703C50.3586 15.2941 51.7014 14.856 53.4157 14.856C53.6443 14.856 53.9586 14.8941 54.3586 14.9703C54.7586 15.0465 55.1491 15.1513 55.53 15.2846C56.1395 15.0179 56.8538 14.7417 57.6729 14.456C58.4919 14.1703 59.0443 14.0275 59.33 14.0275C59.7681 14.0275 60.0919 14.1036 60.3014 14.256C60.53 14.3894 60.6443 14.6941 60.6443 15.1703C60.6443 15.6084 60.3872 15.9227 59.8729 16.1132C59.3776 16.3036 58.6253 16.4846 57.6157 16.656C58.3586 17.5513 58.73 18.637 58.73 19.9132ZM52.7872 22.1989C53.8919 22.1989 54.6919 21.9703 55.1872 21.5132C55.7014 21.056 55.9586 20.3703 55.9586 19.456C55.9586 17.9513 55.0729 17.1989 53.3014 17.1989C52.6157 17.1989 52.0729 17.2751 51.6729 17.4275C51.2919 17.5798 50.9776 17.837 50.73 18.1989C50.3872 18.656 50.2157 19.2751 50.2157 20.056C50.2157 20.6655 50.4633 21.1798 50.9586 21.5989C51.4729 21.9989 52.0824 22.1989 52.7872 22.1989ZM50.2157 29.9989C50.2157 30.3227 50.511 30.5989 51.1014 30.8275C51.711 31.0751 52.3586 31.1989 53.0443 31.1989C53.8062 31.1989 54.5872 31.056 55.3872 30.7703C56.2062 30.5036 56.6157 30.1417 56.6157 29.6846C56.6157 29.0179 56.0253 28.5894 54.8443 28.3989C54.4253 28.3227 53.8157 28.1798 53.0157 27.9703C52.9205 27.9513 52.8062 27.9227 52.6729 27.8846C52.5586 27.8465 52.4348 27.8084 52.3014 27.7703C51.8824 27.9227 51.4253 28.237 50.93 28.7132C50.4538 29.2084 50.2157 29.637 50.2157 29.9989ZM65.4675 22.656C65.4675 23.3798 65.5723 23.9417 65.7818 24.3417C66.0104 24.7227 66.2961 24.9132 66.6389 24.9132C66.8294 24.9132 67.0104 24.9036 67.1818 24.8846C67.3532 24.8465 67.5247 24.8275 67.6961 24.8275C67.8866 24.8275 68.0485 24.9227 68.1818 25.1132C68.3342 25.3036 68.4104 25.5132 68.4104 25.7417C68.4104 26.1989 68.1913 26.5608 67.7532 26.8275C67.3342 27.0751 66.7628 27.1989 66.0389 27.1989C65.5247 27.1989 65.0008 27.0465 64.4675 26.7417C63.9532 26.4179 63.5247 25.9227 63.1818 25.256C62.8389 24.5703 62.6675 23.7227 62.6675 22.7132C62.6675 20.5417 62.7056 18.7036 62.7818 17.1989C62.877 15.4084 62.9247 13.1513 62.9247 10.4275C62.9247 9.57031 62.9723 8.97031 63.0675 8.62745C63.1818 8.36078 63.3628 8.16078 63.6104 8.02745C63.877 7.87507 64.1532 7.79888 64.4389 7.79888C64.7247 7.79888 64.9723 7.8465 65.1818 7.94174C65.4104 8.03698 65.5628 8.18936 65.6389 8.39888C65.7151 8.62745 65.7628 8.85602 65.7818 9.08459C65.8199 9.29412 65.8389 9.59888 65.8389 9.99888C65.8389 10.7798 65.8104 11.5322 65.7532 12.256C65.7151 13.1322 65.6961 13.7703 65.6961 14.1703C65.5437 17.5227 65.4675 20.3513 65.4675 22.656ZM70.1305 21.0275C70.1305 20.3036 70.2638 19.5798 70.5305 18.856C70.7971 18.1132 71.1495 17.437 71.5876 16.8275C72.0257 16.2179 72.7209 15.7227 73.6733 15.3417C74.6257 14.9417 75.4733 14.7417 76.2162 14.7417C76.9781 14.7417 77.7495 14.8465 78.5305 15.056C79.3305 15.2655 79.8828 15.5894 80.1876 16.0275C80.8924 17.0179 81.2447 17.9894 81.2447 18.9417C81.2447 19.456 81.1305 19.8941 80.9019 20.256C80.6924 20.6179 80.3876 21.0084 79.9876 21.4275C79.6638 21.7703 79.1495 21.9989 78.4447 22.1132C77.759 22.2275 77.0733 22.2846 76.3876 22.2846C75.9495 22.2846 75.4162 22.2465 74.7876 22.1703C74.159 22.0751 73.5495 21.9608 72.959 21.8275C72.9971 22.2084 73.0924 22.5798 73.2447 22.9417C73.3971 23.3036 73.5781 23.5798 73.7876 23.7703C74.1686 24.1322 74.559 24.3608 74.959 24.456C75.3781 24.5513 75.9114 24.5989 76.559 24.5989C77.2447 24.5989 77.8828 24.4846 78.4733 24.256C78.9495 24.0846 79.34 23.9989 79.6447 23.9989C80.0067 23.9989 80.2828 24.1132 80.4733 24.3417C80.6638 24.5513 80.759 24.8275 80.759 25.1703C80.759 25.6465 80.4828 26.037 79.9305 26.3417C79.3781 26.6465 78.74 26.8751 78.0162 27.0275C77.3114 27.1608 76.74 27.2275 76.3019 27.2275C75.4067 27.2275 74.54 27.0655 73.7019 26.7417C72.8638 26.4179 72.1686 25.9608 71.6162 25.3703C71.159 24.837 70.7971 24.1989 70.5305 23.456C70.2638 22.6941 70.1305 21.8846 70.1305 21.0275ZM76.359 17.1703C75.94 17.1703 75.5209 17.256 75.1019 17.4275C74.6828 17.5798 74.34 17.7989 74.0733 18.0846C73.7305 18.4465 73.4924 18.7417 73.359 18.9703C73.2447 19.1798 73.1686 19.4751 73.1305 19.856C73.6067 20.0084 74.5971 20.0846 76.1019 20.0846C76.9209 20.0846 77.5495 19.9608 77.9876 19.7132C78.4447 19.4655 78.6733 19.1417 78.6733 18.7417C78.6733 18.3417 78.4257 17.9798 77.9305 17.656C77.4352 17.3322 76.9114 17.1703 76.359 17.1703Z" fill="black"/>
</svg>
