<svg width="32" height="12" viewBox="0 0 32 12" fill="none" xmlns="http://www.w3.org/2000/svg">
<path d="M1.5547 0.16795C1.09517 -0.138403 0.474302 -0.0142289 0.16795 0.4453C-0.138403 0.904828 -0.0142289 1.5257 0.4453 1.83205L1.5547 0.16795ZM16 11L15.4453 11.8321C15.7812 12.056 16.2188 12.056 16.5547 11.8321L16 11ZM31.5547 1.83205C32.0142 1.5257 32.1384 0.904828 31.8321 0.4453C31.5257 -0.0142289 30.9048 -0.138403 30.4453 0.16795L31.5547 1.83205ZM0.4453 1.83205L15.4453 11.8321L16.5547 10.1679L1.5547 0.16795L0.4453 1.83205ZM16.5547 11.8321L31.5547 1.83205L30.4453 0.16795L15.4453 10.1679L16.5547 11.8321Z" fill="#221E1D"/>
</svg>
